<?xml version="1.0" encoding="UTF-8"?>
<svg version="1.1" xmlns="http://www.w3.org/2000/svg" width="1024" height="1024">
<path d="M0 0 C337.92 0 675.84 0 1024 0 C1024 337.92 1024 675.84 1024 1024 C686.08 1024 348.16 1024 0 1024 C0 686.08 0 348.16 0 0 Z " fill="#000000" transform="translate(0,0)"/>
<path d="M0 0 C106.92 0 213.84 0 324 0 C316.66801225 43.99192647 302.99638092 85.05316654 272 118 C270.84684573 119.30607255 269.70038108 120.61809979 268.5625 121.9375 C266.15093114 124.72181721 263.67098087 127.42950497 261.15380859 130.11865234 C240.5767562 152.19872422 223.1632581 175.87197339 223.68359375 207.109375 C224.5570663 229.87082703 235.99379351 247.76891062 250.56152344 264.34375 C252.59547363 266.6856234 254.54947952 269.08844741 256.5 271.5 C259.35221265 275.0190969 262.2633892 278.47092909 265.23828125 281.88574219 C281.15563735 300.19892772 296.03260376 319.76769678 306 342 C306.51949219 343.15113281 307.03898437 344.30226563 307.57421875 345.48828125 C315.57784202 364.37347106 324 388.35349476 324 409 C217.08 409 110.16 409 0 409 C2.45825472 381.95919806 9.79664481 354.82614367 23 331 C23.63230496 329.81422543 24.26382105 328.62802984 24.89453125 327.44140625 C36.50933233 306.22251303 53.10960349 287.68579857 69 269.57421875 C87.78835278 248.0941077 101.38972367 225.80412912 100.17041016 196.25830078 C98.86568444 178.96788115 88.44704877 162.31584152 78 149 C77.2575 148.04609375 76.515 147.0921875 75.75 146.109375 C70.93513573 140.09079466 65.78589366 134.41167527 60.55078125 128.76171875 C57.29335193 125.23491549 54.1360117 121.63449243 51 118 C50.05093458 116.91653234 49.10170038 115.83321251 48.15234375 114.75 C22.34066605 85.16771358 0 40.15928727 0 0 Z " fill="#FE3030" transform="translate(350,308)"/>
</svg>
